<?xml version="1.0" encoding="UTF-8" standalone="no"?>
<!-- Created with Inkscape (http://www.inkscape.org/) -->

<svg
   width="256"
   height="256"
   viewBox="0 0 67.733335 67.733335"
   version="1.1"
   id="svg5"
   inkscape:version="1.2 (1:1.2+202206011327+fc4e4096c5)"
   sodipodi:docname="logotype.svg"
   inkscape:export-filename="logo.png"
   inkscape:export-xdpi="192"
   inkscape:export-ydpi="192"
   xmlns:inkscape="http://www.inkscape.org/namespaces/inkscape"
   xmlns:sodipodi="http://sodipodi.sourceforge.net/DTD/sodipodi-0.dtd"
   xmlns="http://www.w3.org/2000/svg"
   xmlns:svg="http://www.w3.org/2000/svg">
  <sodipodi:namedview
     id="namedview7"
     pagecolor="#ffffff"
     bordercolor="#999999"
     borderopacity="1"
     inkscape:showpageshadow="0"
     inkscape:pageopacity="0"
     inkscape:pagecheckerboard="0"
     inkscape:deskcolor="#d1d1d1"
     inkscape:document-units="px"
     showgrid="false"
     showguides="false"
     inkscape:zoom="2.1131032"
     inkscape:cx="102.45595"
     inkscape:cy="188.58521"
     inkscape:window-width="1366"
     inkscape:window-height="714"
     inkscape:window-x="0"
     inkscape:window-y="27"
     inkscape:window-maximized="1"
     inkscape:current-layer="text13202">
    <sodipodi:guide
       position="33.866669,33.866666"
       orientation="0,-1"
       id="guide2516"
       inkscape:locked="false" />
    <sodipodi:guide
       position="33.866669,33.866666"
       orientation="1,0"
       id="guide2518"
       inkscape:locked="false" />
  </sodipodi:namedview>
  <defs
     id="defs2" />
  <g
     inkscape:label="Layer 1"
     inkscape:groupmode="layer"
     id="layer1">
    <g
       id="g466"
       transform="matrix(0.71081886,0,0,0.71081886,9.7936007,5.9315348e-7)">
      <circle
         style="fill:#ffffff;fill-opacity:1;fill-rule:evenodd;stroke:#000000;stroke-width:2.64583;stroke-linecap:square;stroke-dasharray:none;stroke-opacity:1"
         id="path184"
         cx="-33.866669"
         cy="-33.866669"
         r="32.543755"
         transform="scale(-1)" />
      <path
         sodipodi:type="spiral"
         style="fill:none;fill-rule:evenodd;stroke:#000000;stroke-width:1.32292;stroke-dasharray:none"
         id="path2520"
         sodipodi:cx="33.866669"
         sodipodi:cy="33.866669"
         sodipodi:expansion="2"
         sodipodi:revolution="1"
         sodipodi:radius="32.543758"
         sodipodi:argument="-9.424778"
         sodipodi:t0="0"
         d="m 33.866669,33.866669 c -0.902957,0 -0.199323,-1.780199 0,-2.033985 2.284207,-2.908344 6.651986,-0.297004 8.135939,2.033985 4.471764,7.024229 -1.539612,15.506296 -8.135939,18.305864 C 19.936297,58.084767 5.483387,46.937191 1.3229103,33.866669"
         transform="matrix(-0.29813781,-0.95452284,-0.95452284,0.29813781,76.290111,56.096246)" />
      <path
         sodipodi:type="spiral"
         style="fill:none;fill-opacity:1;fill-rule:evenodd;stroke:#000000;stroke-width:1.32292;stroke-dasharray:none"
         id="path2522"
         sodipodi:cx="33.866669"
         sodipodi:cy="33.866669"
         sodipodi:expansion="2"
         sodipodi:revolution="1"
         sodipodi:radius="32.543758"
         sodipodi:argument="-6.2831855"
         sodipodi:t0="0"
         d="m 33.866669,33.866669 c 0.902956,0 0.199323,1.780199 0,2.033985 -2.284207,2.908343 -6.651986,0.297005 -8.13594,-2.033984 -4.471764,-7.024229 1.53961,-15.506296 8.135937,-18.305865 13.93037,-5.9122363 28.383282,5.235337 32.543761,18.305858"
         transform="matrix(-0.29813781,-0.95452284,-0.95452284,0.29813781,76.290111,56.096246)" />
      <path
         style="fill:#000000;fill-opacity:1;fill-rule:evenodd;stroke:none;stroke-width:2.64583;stroke-linecap:square;stroke-dasharray:none;stroke-opacity:1"
         d="m 36.216816,1.4078824 c 7.933542,0.610976 17.057652,5.209418 22.299106,11.2100146 8.18181,9.366819 9.391452,23.276269 4.21759,34.615461 -2.863261,6.275209 -8.792042,12.355889 -15.046541,15.209799 -2.657456,1.212589 -4.979188,2.509329 -6.257773,2.392734 -8.377793,-0.763975 -16.437585,-5.155197 -20.930117,-11.102115 -1.30886,-1.732582 -2.960389,-5.007624 -3.521213,-7.132885 -0.404199,-1.531718 -0.675965,-2.726259 -0.687308,-5.100423 -0.01124,-2.352937 0.185539,-3.345866 0.53086,-4.544349 1.871364,-6.494799 8.146304,-11.934897 13.022697,-11.155889 0.643157,0.102743 2.539823,0.748924 3.245342,1.011364 1.903084,0.707914 3.661862,4.170879 3.253624,5.244627 -0.168701,0.443719 -1.493113,2.156957 -2.476416,2.069513 -0.947811,-0.08429 -0.398814,-0.805026 -1.212524,-0.25742 -1.284949,0.864737 -1.33458,0.800228 -1.335387,2.486071 -5.29e-4,1.104927 0.172606,1.110041 0.595895,1.972096 1.481026,3.016221 2.846125,3.876132 6.732426,3.656722 3.165784,-0.178732 5.495064,-0.896258 8.051202,-3.608007 3.232335,-3.429111 4.736102,-6.636396 4.74112,-11.648133 0.0038,-3.808212 -0.403822,-5.878637 -2.03711,-9.191012 C 46.528952,11.70881 41.653752,7.4820624 34.54749,4.7702094 33.668206,4.4346624 27.587184,1.9869777 27.543348,1.9431417 c -0.0981,-0.0981 6.237377,-0.7228673 8.673468,-0.5352593 z"
         id="path7815"
         sodipodi:nodetypes="sssssssssssssssssssssss" />
      <path
         style="fill:#ffffff;fill-opacity:1;fill-rule:evenodd;stroke:none;stroke-width:2.64583;stroke-linecap:square;stroke-dasharray:none;stroke-opacity:1"
         d="m 30.09878,33.866669 c 0,0 -0.954257,-2.541031 -3.821346,-2.606588 -2.86709,-0.06556 -5.183866,2.606588 -5.183866,2.606588 0,0 1.909525,2.54187 4.849769,2.533674 2.940243,-0.0082 4.155443,-2.533674 4.155443,-2.533674 z"
         id="path10823"
         sodipodi:nodetypes="czczc" />
      <path
         style="fill:#000000;fill-opacity:1;fill-rule:evenodd;stroke:none;stroke-width:2.64583;stroke-linecap:square;stroke-dasharray:none;stroke-opacity:1"
         d="m 37.550166,33.829628 c 0,0 0.954257,2.541031 3.821346,2.606588 2.86709,0.06556 5.183866,-2.606588 5.183866,-2.606588 0,0 -1.909525,-2.54187 -4.849769,-2.533674 -2.940243,0.0082 -4.155443,2.533674 -4.155443,2.533674 z"
         id="path11365"
         sodipodi:nodetypes="czczc" />
    </g>
    <g
       aria-label="TAO"
       id="text13202"
       style="font-size:23.1773px;line-height:0;font-family:Sawasdee;-inkscape-font-specification:Sawasdee;stroke-width:0.579435">
      <path
         d="M 19.075296,53.009864 V 67.291969 H 16.38184 V 53.009864 H 11.979511 V 50.723822 H 23.45499 v 2.286042 z"
         style="font-family:'Futura Md BT';-inkscape-font-specification:'Futura Md BT'"
         id="path298" />
      <path
         d="m 27.325418,60.784671 h 4.617353 l -1.697556,-3.779892 q -0.147122,-0.362145 -0.30556,-0.826144 -0.158439,-0.475315 -0.316877,-1.052485 -0.135805,0.543218 -0.294244,1.018534 -0.147121,0.463999 -0.30556,0.860095 z m 7.446613,6.507298 -1.878629,-4.266524 h -6.563883 l -1.923897,4.266524 h -2.82926 l 8.023781,-17.224536 8.012465,17.224536 z"
         style="font-family:'Futura Md BT';-inkscape-font-specification:'Futura Md BT'"
         id="path300" />
      <path
         d="m 52.947198,58.600482 q 0,-1.256192 -0.463998,-2.387896 -0.452682,-1.131704 -1.312777,-2.014433 -0.837461,-0.871412 -1.946531,-1.335411 -1.097753,-0.475316 -2.319993,-0.475316 -1.222241,0 -2.331311,0.463999 -1.097753,0.463999 -1.957848,1.346728 -0.860095,0.871412 -1.312776,2.003116 -0.452682,1.131704 -0.452682,2.399213 0,1.256191 0.452682,2.376578 0.452681,1.120387 1.312776,2.003116 0.860095,0.88273 1.957848,1.346728 1.097753,0.463999 2.331311,0.463999 1.210923,0 2.297359,-0.463999 1.097753,-0.463998 1.969165,-1.346728 0.860095,-0.882729 1.312777,-2.003116 0.463998,-1.131704 0.463998,-2.376578 z m 2.806627,0 q 0,1.765458 -0.667706,3.338527 -0.656388,1.573068 -1.923897,2.806626 -1.278825,1.233557 -2.885845,1.889946 -1.60702,0.656388 -3.372478,0.656388 -1.788093,0 -3.417747,-0.656388 -1.618336,-0.667706 -2.863211,-1.889946 -1.267508,-1.233558 -1.923897,-2.795309 -0.656388,-1.561752 -0.656388,-3.349844 0,-1.776776 0.656388,-3.349844 0.656389,-1.573069 1.923897,-2.817944 1.267509,-1.233557 2.874528,-1.878628 1.60702,-0.645072 3.40643,-0.645072 1.788092,0 3.383795,0.645072 1.60702,0.645071 2.874528,1.878628 1.267509,1.256192 1.923897,2.840578 0.667706,1.573068 0.667706,3.32721 z"
         style="font-family:'Futura Md BT';-inkscape-font-specification:'Futura Md BT'"
         id="path302" />
    </g>
  </g>
</svg>
