<?xml version="1.0" encoding="UTF-8" standalone="no"?>
<!-- Created with Inkscape (http://www.inkscape.org/) -->

<svg
   width="256"
   height="256"
   viewBox="0 0 67.733335 67.733335"
   version="1.1"
   id="svg5"
   inkscape:version="1.2 (1:1.2+202206011327+fc4e4096c5)"
   sodipodi:docname="logo.svg"
   inkscape:export-filename="logo.png"
   inkscape:export-xdpi="192"
   inkscape:export-ydpi="192"
   xmlns:inkscape="http://www.inkscape.org/namespaces/inkscape"
   xmlns:sodipodi="http://sodipodi.sourceforge.net/DTD/sodipodi-0.dtd"
   xmlns="http://www.w3.org/2000/svg"
   xmlns:svg="http://www.w3.org/2000/svg">
  <sodipodi:namedview
     id="namedview7"
     pagecolor="#ffffff"
     bordercolor="#999999"
     borderopacity="1"
     inkscape:showpageshadow="0"
     inkscape:pageopacity="0"
     inkscape:pagecheckerboard="0"
     inkscape:deskcolor="#d1d1d1"
     inkscape:document-units="px"
     showgrid="false"
     showguides="false"
     inkscape:zoom="1.4941896"
     inkscape:cx="108.08535"
     inkscape:cy="155.60274"
     inkscape:window-width="1366"
     inkscape:window-height="714"
     inkscape:window-x="0"
     inkscape:window-y="27"
     inkscape:window-maximized="1"
     inkscape:current-layer="layer1">
    <sodipodi:guide
       position="33.866669,33.866666"
       orientation="0,-1"
       id="guide2516"
       inkscape:locked="false" />
    <sodipodi:guide
       position="33.866669,33.866666"
       orientation="1,0"
       id="guide2518"
       inkscape:locked="false" />
  </sodipodi:namedview>
  <defs
     id="defs2" />
  <g
     inkscape:label="Layer 1"
     inkscape:groupmode="layer"
     id="layer1">
    <circle
       style="fill:#ffffff;fill-rule:evenodd;stroke:#000000;stroke-width:2.64583;stroke-linecap:square;stroke-dasharray:none;stroke-opacity:1;fill-opacity:1"
       id="path184"
       cx="-33.866669"
       cy="-33.866669"
       r="32.543755"
       transform="scale(-1)" />
    <path
       sodipodi:type="spiral"
       style="fill:none;fill-rule:evenodd;stroke:#000000;stroke-width:1.3229167;stroke-dasharray:none"
       id="path2520"
       sodipodi:cx="33.866669"
       sodipodi:cy="33.866669"
       sodipodi:expansion="2"
       sodipodi:revolution="1"
       sodipodi:radius="32.543758"
       sodipodi:argument="-9.424778"
       sodipodi:t0="0"
       d="m 33.866669,33.866669 c -0.902957,0 -0.199323,-1.780199 0,-2.033985 2.284207,-2.908344 6.651986,-0.297004 8.135939,2.033985 4.471764,7.024229 -1.539612,15.506296 -8.135939,18.305864 C 19.936297,58.084767 5.483387,46.937191 1.3229103,33.866669"
       transform="matrix(-0.29813781,-0.95452284,-0.95452284,0.29813781,76.290111,56.096246)" />
    <path
       sodipodi:type="spiral"
       style="fill:none;fill-opacity:1;fill-rule:evenodd;stroke:#000000;stroke-width:1.3229167;stroke-dasharray:none"
       id="path2522"
       sodipodi:cx="33.866669"
       sodipodi:cy="33.866669"
       sodipodi:expansion="2"
       sodipodi:revolution="1"
       sodipodi:radius="32.543758"
       sodipodi:argument="-6.2831855"
       sodipodi:t0="0"
       d="m 33.866669,33.866669 c 0.902956,0 0.199323,1.780199 0,2.033985 -2.284207,2.908343 -6.651986,0.297005 -8.13594,-2.033984 -4.471764,-7.024229 1.53961,-15.506296 8.135937,-18.305865 13.93037,-5.9122363 28.383282,5.235337 32.543761,18.305858"
       transform="matrix(-0.29813781,-0.95452284,-0.95452284,0.29813781,76.290111,56.096246)" />
    <path
       style="fill:#000000;fill-opacity:1;fill-rule:evenodd;stroke:none;stroke-width:2.64583;stroke-linecap:square;stroke-dasharray:none;stroke-opacity:1"
       d="m 36.216816,1.4078824 c 7.933542,0.610976 17.057652,5.209418 22.299106,11.2100146 8.18181,9.366819 9.391452,23.276269 4.21759,34.615461 -2.863261,6.275209 -8.792042,12.355889 -15.046541,15.209799 -2.657456,1.212589 -4.979188,2.509329 -6.257773,2.392734 -8.377793,-0.763975 -16.437585,-5.155197 -20.930117,-11.102115 -1.30886,-1.732582 -2.960389,-5.007624 -3.521213,-7.132885 -0.404199,-1.531718 -0.675965,-2.726259 -0.687308,-5.100423 -0.01124,-2.352937 0.185539,-3.345866 0.53086,-4.544349 1.871364,-6.494799 8.146304,-11.934897 13.022697,-11.155889 0.643157,0.102743 2.539823,0.748924 3.245342,1.011364 1.903084,0.707914 3.661862,4.170879 3.253624,5.244627 -0.168701,0.443719 -1.493113,2.156957 -2.476416,2.069513 -0.947811,-0.08429 -0.398814,-0.805026 -1.212524,-0.25742 -1.284949,0.864737 -1.33458,0.800228 -1.335387,2.486071 -5.29e-4,1.104927 0.172606,1.110041 0.595895,1.972096 1.481026,3.016221 2.846125,3.876132 6.732426,3.656722 3.165784,-0.178732 5.495064,-0.896258 8.051202,-3.608007 3.232335,-3.429111 4.736102,-6.636396 4.74112,-11.648133 0.0038,-3.808212 -0.403822,-5.878637 -2.03711,-9.191012 C 46.528952,11.70881 41.653752,7.4820624 34.54749,4.7702094 33.668206,4.4346624 27.587184,1.9869777 27.543348,1.9431417 c -0.0981,-0.0981 6.237377,-0.7228673 8.673468,-0.5352593 z"
       id="path7815"
       sodipodi:nodetypes="sssssssssssssssssssssss" />
    <path
       style="fill:#ffffff;fill-opacity:1;fill-rule:evenodd;stroke:none;stroke-width:2.64583;stroke-linecap:square;stroke-dasharray:none;stroke-opacity:1"
       d="m 30.09878,33.866669 c 0,0 -0.954257,-2.541031 -3.821346,-2.606588 -2.86709,-0.06556 -5.183866,2.606588 -5.183866,2.606588 0,0 1.909525,2.54187 4.849769,2.533674 2.940243,-0.0082 4.155443,-2.533674 4.155443,-2.533674 z"
       id="path10823"
       sodipodi:nodetypes="czczc" />
    <path
       style="fill:#000000;fill-opacity:1;fill-rule:evenodd;stroke:none;stroke-width:2.64583;stroke-linecap:square;stroke-dasharray:none;stroke-opacity:1"
       d="m 37.550166,33.829628 c 0,0 0.954257,2.541031 3.821346,2.606588 2.86709,0.06556 5.183866,-2.606588 5.183866,-2.606588 0,0 -1.909525,-2.54187 -4.849769,-2.533674 -2.940243,0.0082 -4.155443,2.533674 -4.155443,2.533674 z"
       id="path11365"
       sodipodi:nodetypes="czczc" />
    <text
       xml:space="preserve"
       style="font-style:normal;font-variant:normal;font-weight:normal;font-stretch:normal;font-size:10.5833px;line-height:0;font-family:Sawasdee;-inkscape-font-specification:Sawasdee;stroke-width:0.264583"
       x="23.800131"
       y="77.715134"
       id="text13202"><tspan
         sodipodi:role="line"
         id="tspan13200"
         x="23.800131"
         y="77.715134"
         style="font-style:normal;font-variant:normal;font-weight:normal;font-stretch:normal;font-family:'Futura Md BT';-inkscape-font-specification:'Futura Md BT';stroke-width:0.264583">TAO</tspan></text>
  </g>
</svg>
